<?xml version="1.0" encoding="utf-8"?>
<svg width="983" height="248" xmlns="http://www.w3.org/2000/svg">
  <defs>
    <clipPath id="a">
      <path d="M0 0h983v248H0z"/>
    </clipPath>
  </defs>
  <g clip-path="url(#a)">
    <path fill="#212121" d="M778.377 216.784V48.862H724.5a18.064 18.064 0 1 1 0-36.127h147.371a18.064 18.064 0 1 1 0 36.127h-54.2v167.922a19.65 19.65 0 1 1-39.3 0Zm-304.975.32v-186a19.568 19.568 0 0 1 19.626-19.636h4.119c9.545 0 14.886 4.749 20.284 11.412l110.907 143.571V30.177a19.17 19.17 0 1 1 38.339 0v186.3a18.948 18.948 0 0 1-18.986 19.358h-1.6c-9.182 0-14.886-4.773-20.274-11.769L511.746 76.438v140.666a19.176 19.176 0 1 1-38.351 0Zm458.14-.315V30.492a19.492 19.492 0 0 1 38.983 0v186.3a19.492 19.492 0 0 1-38.983 0Zm-651.921 17.53a18.064 18.064 0 1 1 0-36.127h129.793a18.064 18.064 0 1 1 0 36.127Zm0-92.733a18.063 18.063 0 0 1 0-36.125h129.794a18.064 18.064 0 1 1 0 36.127Zm0-92.729a18.064 18.064 0 1 1 0-36.127h129.793a18.064 18.064 0 1 1 0 36.127Z"/>
    <path fill="#4c64f4" d="M115.035 237.746a23.1 23.1 0 0 1-22.174-15.9L15.219 39.364A21.983 21.983 0 0 1 13 30.181a19.234 19.234 0 0 1 19.663-19.054 20.432 20.432 0 0 1 19.95 13.96l64.016 160.03L181.6 23.827a20.045 20.045 0 0 1 18.68-12.7 18.909 18.909 0 0 1 19.348 18.742 22.805 22.805 0 0 1-1.909 8.2l-77.971 183.774a23.21 23.21 0 0 1-22.5 15.9Z"/>
  </g>
</svg>